<svg width="200" height="32" viewBox="0 0 200 32" fill="none" xmlns="http://www.w3.org/2000/svg">
  <rect width="200" height="32" rx="16" fill="#FFFFFF"/>
  <circle cx="16" cy="16" r="10" fill="#FFFFFF" stroke="#E5E7EB"/>
  <path d="M21.5 16.3c0-.4 0-.8-.1-1.1H16v2.1h3.1c-.1.7-.6 1.7-1.6 2.4v1.8h2.6c1.5-1.4 2.4-3.4 2.4-5.2z" fill="#4285F4"/>
  <path d="M16 22.9c2.2 0 4.1-.7 5.5-2l-2.6-1.8c-.7.5-1.6.9-2.9.9-2.2 0-4.1-1.5-4.8-3.5H8.5v2.2c1.4 2.7 4.1 4.2 7.5 4.2z" fill="#34A853"/>
  <path d="M11.2 16.5c-.2-.7-.2-1.4 0-2.1V12.2H8.5c-.8 1.6-1.2 3.5-1.2 4.3 0 .8.4 2.7 1.2 4.3l2.7-2.2z" fill="#FBBC05"/>
  <path d="M16 10.1c1.2 0 2.3.4 3.1 1.2l2.2-2.2C20 7.9 18.2 7.1 16 7.1c-3.4 0-6.1 1.5-7.5 4.2l2.7 2.1c.7-2 2.6-3.3 4.8-3.3z" fill="#EA4335"/>
  <text x="34" y="20" font-family="Arial, sans-serif" font-size="12" fill="#374151">Powered by Google Books</text>
</svg>
